<mxfile host="app.diagrams.net" modified="2023-10-24T09:08:31.065Z" agent="Mozilla/5.0 (Windows NT 10.0; Win64; x64) AppleWebKit/537.36 (KHTML, like Gecko) Chrome/95.0.4638.69 Safari/537.36" etag="SgPeSkfFqpbaHl62xAM-" version="22.0.6" type="github">
  <diagram name="第 1 页" id="_DneN8VtaHD5YHXJaH7l">
    <mxGraphModel dx="2515" dy="-1834" grid="1" gridSize="10" guides="1" tooltips="1" connect="1" arrows="1" fold="1" page="1" pageScale="1" pageWidth="827" pageHeight="1169" math="0" shadow="0">
      <root>
        <mxCell id="0" />
        <mxCell id="1" parent="0" />
        <mxCell id="ryVuJxq20EtKmYp90kE4-1" value="&lt;p style=&quot;box-sizing: border-box; outline: 0px; margin: 0px; padding: 0px; font-size: 14px; color: rgb(79, 79, 79); overflow: auto hidden; line-height: 22px; overflow-wrap: break-word; text-align: left; font-family: -apple-system, &amp;quot;SF UI Text&amp;quot;, Arial, &amp;quot;PingFang SC&amp;quot;, &amp;quot;Hiragino Sans GB&amp;quot;, &amp;quot;Microsoft YaHei&amp;quot;, &amp;quot;WenQuanYi Micro Hei&amp;quot;, sans-serif, SimHei, SimSun; background-color: rgb(255, 255, 255);&quot;&gt;①项目管理计划&lt;/p&gt;&lt;p style=&quot;box-sizing: border-box; outline: 0px; margin: 0px; padding: 0px; font-size: 14px; color: rgb(79, 79, 79); overflow: auto hidden; line-height: 22px; overflow-wrap: break-word; text-align: left; font-family: -apple-system, &amp;quot;SF UI Text&amp;quot;, Arial, &amp;quot;PingFang SC&amp;quot;, &amp;quot;Hiragino Sans GB&amp;quot;, &amp;quot;Microsoft YaHei&amp;quot;, &amp;quot;WenQuanYi Micro Hei&amp;quot;, sans-serif, SimHei, SimSun; background-color: rgb(255, 255, 255);&quot;&gt;②项目章程&lt;/p&gt;&lt;p style=&quot;box-sizing: border-box; outline: 0px; margin: 0px; padding: 0px; font-size: 14px; color: rgb(79, 79, 79); overflow: auto hidden; line-height: 22px; overflow-wrap: break-word; text-align: left; font-family: -apple-system, &amp;quot;SF UI Text&amp;quot;, Arial, &amp;quot;PingFang SC&amp;quot;, &amp;quot;Hiragino Sans GB&amp;quot;, &amp;quot;Microsoft YaHei&amp;quot;, &amp;quot;WenQuanYi Micro Hei&amp;quot;, sans-serif, SimHei, SimSun; background-color: rgb(255, 255, 255);&quot;&gt;③组织过程资产&lt;/p&gt;&lt;p style=&quot;box-sizing: border-box; outline: 0px; margin: 0px; padding: 0px; font-size: 14px; color: rgb(79, 79, 79); overflow: auto hidden; line-height: 22px; overflow-wrap: break-word; text-align: left; font-family: -apple-system, &amp;quot;SF UI Text&amp;quot;, Arial, &amp;quot;PingFang SC&amp;quot;, &amp;quot;Hiragino Sans GB&amp;quot;, &amp;quot;Microsoft YaHei&amp;quot;, &amp;quot;WenQuanYi Micro Hei&amp;quot;, sans-serif, SimHei, SimSun; background-color: rgb(255, 255, 255);&quot;&gt;④事业环境因素&lt;/p&gt;" style="rounded=0;whiteSpace=wrap;html=1;" vertex="1" parent="1">
          <mxGeometry x="-680" y="2588.5" width="120" height="110" as="geometry" />
        </mxCell>
        <mxCell id="ryVuJxq20EtKmYp90kE4-2" value="&lt;p style=&quot;box-sizing: border-box; outline: 0px; margin: 0px; padding: 0px; font-size: 14px; color: rgb(79, 79, 79); overflow: auto hidden; line-height: 22px; overflow-wrap: break-word; text-align: left; font-family: -apple-system, &amp;quot;SF UI Text&amp;quot;, Arial, &amp;quot;PingFang SC&amp;quot;, &amp;quot;Hiragino Sans GB&amp;quot;, &amp;quot;Microsoft YaHei&amp;quot;, &amp;quot;WenQuanYi Micro Hei&amp;quot;, sans-serif, SimHei, SimSun; background-color: rgb(255, 255, 255);&quot;&gt;①专家判断&lt;/p&gt;&lt;p style=&quot;box-sizing: border-box; outline: 0px; margin: 0px; padding: 0px; font-size: 14px; color: rgb(79, 79, 79); overflow: auto hidden; line-height: 22px; overflow-wrap: break-word; text-align: left; font-family: -apple-system, &amp;quot;SF UI Text&amp;quot;, Arial, &amp;quot;PingFang SC&amp;quot;, &amp;quot;Hiragino Sans GB&amp;quot;, &amp;quot;Microsoft YaHei&amp;quot;, &amp;quot;WenQuanYi Micro Hei&amp;quot;, sans-serif, SimHei, SimSun; background-color: rgb(255, 255, 255);&quot;&gt;②分析技术&lt;/p&gt;&lt;p style=&quot;box-sizing: border-box; outline: 0px; margin: 0px; padding: 0px; font-size: 14px; color: rgb(79, 79, 79); overflow: auto hidden; line-height: 22px; overflow-wrap: break-word; text-align: left; font-family: -apple-system, &amp;quot;SF UI Text&amp;quot;, Arial, &amp;quot;PingFang SC&amp;quot;, &amp;quot;Hiragino Sans GB&amp;quot;, &amp;quot;Microsoft YaHei&amp;quot;, &amp;quot;WenQuanYi Micro Hei&amp;quot;, sans-serif, SimHei, SimSun; background-color: rgb(255, 255, 255);&quot;&gt;③会议&lt;/p&gt;" style="rounded=0;whiteSpace=wrap;html=1;" vertex="1" parent="1">
          <mxGeometry x="-560" y="2588.5" width="120" height="110" as="geometry" />
        </mxCell>
        <mxCell id="ryVuJxq20EtKmYp90kE4-3" value="&lt;p style=&quot;box-sizing: border-box; outline: 0px; margin: 0px; padding: 0px; font-size: 14px; color: rgb(79, 79, 79); overflow: auto hidden; line-height: 22px; overflow-wrap: break-word; text-align: left; font-family: -apple-system, &amp;quot;SF UI Text&amp;quot;, Arial, &amp;quot;PingFang SC&amp;quot;, &amp;quot;Hiragino Sans GB&amp;quot;, &amp;quot;Microsoft YaHei&amp;quot;, &amp;quot;WenQuanYi Micro Hei&amp;quot;, sans-serif, SimHei, SimSun; background-color: rgb(255, 255, 255);&quot;&gt;①成本管理计划&lt;br&gt;&lt;/p&gt;" style="rounded=0;whiteSpace=wrap;html=1;" vertex="1" parent="1">
          <mxGeometry x="-440" y="2588.5" width="120" height="110" as="geometry" />
        </mxCell>
        <mxCell id="ryVuJxq20EtKmYp90kE4-4" value="&lt;h4 style=&quot;box-sizing: border-box; outline: 0px; margin: 24px 0px 8px; padding: 0px; font-family: &amp;quot;PingFang SC&amp;quot;, &amp;quot;Microsoft YaHei&amp;quot;, SimHei, Arial, SimSun; font-size: 18px; color: rgb(79, 79, 79); line-height: 26px; overflow-wrap: break-word; text-align: start; background-color: rgb(255, 255, 255);&quot; id=&quot;1%E3%80%81%E8%A7%84%E5%88%92%E6%88%90%E6%9C%AC%E7%AE%A1%E7%90%86&quot;&gt;规划成本&lt;/h4&gt;" style="rounded=0;whiteSpace=wrap;html=1;" vertex="1" parent="1">
          <mxGeometry x="-800" y="2588.5" width="120" height="110" as="geometry" />
        </mxCell>
        <mxCell id="ryVuJxq20EtKmYp90kE4-5" value="&lt;p style=&quot;box-sizing: border-box; outline: 0px; margin: 0px; padding: 0px; font-size: 14px; color: rgb(79, 79, 79); overflow: auto hidden; line-height: 22px; overflow-wrap: break-word; text-align: left; font-family: -apple-system, &amp;quot;SF UI Text&amp;quot;, Arial, &amp;quot;PingFang SC&amp;quot;, &amp;quot;Hiragino Sans GB&amp;quot;, &amp;quot;Microsoft YaHei&amp;quot;, &amp;quot;WenQuanYi Micro Hei&amp;quot;, sans-serif, SimHei, SimSun; background-color: rgb(255, 255, 255);&quot;&gt;规划过程组&lt;/p&gt;" style="rounded=0;whiteSpace=wrap;html=1;" vertex="1" parent="1">
          <mxGeometry x="-320" y="2588.5" width="120" height="110" as="geometry" />
        </mxCell>
        <mxCell id="ryVuJxq20EtKmYp90kE4-6" value="&lt;p style=&quot;box-sizing: border-box; outline: 0px; margin: 0px; padding: 0px; font-size: 14px; color: rgb(79, 79, 79); overflow: auto hidden; line-height: 22px; overflow-wrap: break-word; text-align: left; font-family: -apple-system, &amp;quot;SF UI Text&amp;quot;, Arial, &amp;quot;PingFang SC&amp;quot;, &amp;quot;Hiragino Sans GB&amp;quot;, &amp;quot;Microsoft YaHei&amp;quot;, &amp;quot;WenQuanYi Micro Hei&amp;quot;, sans-serif, SimHei, SimSun; background-color: rgb(255, 255, 255);&quot;&gt;①成本管理计划&lt;/p&gt;&lt;p style=&quot;box-sizing: border-box; outline: 0px; margin: 0px; padding: 0px; font-size: 14px; color: rgb(79, 79, 79); overflow: auto hidden; line-height: 22px; overflow-wrap: break-word; text-align: left; font-family: -apple-system, &amp;quot;SF UI Text&amp;quot;, Arial, &amp;quot;PingFang SC&amp;quot;, &amp;quot;Hiragino Sans GB&amp;quot;, &amp;quot;Microsoft YaHei&amp;quot;, &amp;quot;WenQuanYi Micro Hei&amp;quot;, sans-serif, SimHei, SimSun; background-color: rgb(255, 255, 255);&quot;&gt;②人力资源管理计划&lt;/p&gt;&lt;p style=&quot;box-sizing: border-box; outline: 0px; margin: 0px; padding: 0px; font-size: 14px; color: rgb(79, 79, 79); overflow: auto hidden; line-height: 22px; overflow-wrap: break-word; text-align: left; font-family: -apple-system, &amp;quot;SF UI Text&amp;quot;, Arial, &amp;quot;PingFang SC&amp;quot;, &amp;quot;Hiragino Sans GB&amp;quot;, &amp;quot;Microsoft YaHei&amp;quot;, &amp;quot;WenQuanYi Micro Hei&amp;quot;, sans-serif, SimHei, SimSun; background-color: rgb(255, 255, 255);&quot;&gt;③范围基准&lt;/p&gt;&lt;p style=&quot;box-sizing: border-box; outline: 0px; margin: 0px; padding: 0px; font-size: 14px; color: rgb(79, 79, 79); overflow: auto hidden; line-height: 22px; overflow-wrap: break-word; text-align: left; font-family: -apple-system, &amp;quot;SF UI Text&amp;quot;, Arial, &amp;quot;PingFang SC&amp;quot;, &amp;quot;Hiragino Sans GB&amp;quot;, &amp;quot;Microsoft YaHei&amp;quot;, &amp;quot;WenQuanYi Micro Hei&amp;quot;, sans-serif, SimHei, SimSun; background-color: rgb(255, 255, 255);&quot;&gt;④项目进度计划&lt;/p&gt;&lt;p style=&quot;box-sizing: border-box; outline: 0px; margin: 0px; padding: 0px; font-size: 14px; color: rgb(79, 79, 79); overflow: auto hidden; line-height: 22px; overflow-wrap: break-word; text-align: left; font-family: -apple-system, &amp;quot;SF UI Text&amp;quot;, Arial, &amp;quot;PingFang SC&amp;quot;, &amp;quot;Hiragino Sans GB&amp;quot;, &amp;quot;Microsoft YaHei&amp;quot;, &amp;quot;WenQuanYi Micro Hei&amp;quot;, sans-serif, SimHei, SimSun; background-color: rgb(255, 255, 255);&quot;&gt;⑤风险登记册&lt;/p&gt;&lt;p style=&quot;box-sizing: border-box; outline: 0px; margin: 0px; padding: 0px; font-size: 14px; color: rgb(79, 79, 79); overflow: auto hidden; line-height: 22px; overflow-wrap: break-word; text-align: left; font-family: -apple-system, &amp;quot;SF UI Text&amp;quot;, Arial, &amp;quot;PingFang SC&amp;quot;, &amp;quot;Hiragino Sans GB&amp;quot;, &amp;quot;Microsoft YaHei&amp;quot;, &amp;quot;WenQuanYi Micro Hei&amp;quot;, sans-serif, SimHei, SimSun; background-color: rgb(255, 255, 255);&quot;&gt;⑥事业环境因素&lt;/p&gt;&lt;p style=&quot;box-sizing: border-box; outline: 0px; margin: 0px; padding: 0px; font-size: 14px; color: rgb(79, 79, 79); overflow: auto hidden; line-height: 22px; overflow-wrap: break-word; text-align: left; font-family: -apple-system, &amp;quot;SF UI Text&amp;quot;, Arial, &amp;quot;PingFang SC&amp;quot;, &amp;quot;Hiragino Sans GB&amp;quot;, &amp;quot;Microsoft YaHei&amp;quot;, &amp;quot;WenQuanYi Micro Hei&amp;quot;, sans-serif, SimHei, SimSun; background-color: rgb(255, 255, 255);&quot;&gt;⑦组织过程资产&lt;/p&gt;" style="rounded=0;whiteSpace=wrap;html=1;" vertex="1" parent="1">
          <mxGeometry x="-680" y="2698.5" width="120" height="221.5" as="geometry" />
        </mxCell>
        <mxCell id="ryVuJxq20EtKmYp90kE4-7" value="&lt;p style=&quot;box-sizing: border-box; outline: 0px; margin: 0px; padding: 0px; font-size: 14px; color: rgb(79, 79, 79); overflow: auto hidden; line-height: 22px; overflow-wrap: break-word; text-align: left; font-family: -apple-system, &amp;quot;SF UI Text&amp;quot;, Arial, &amp;quot;PingFang SC&amp;quot;, &amp;quot;Hiragino Sans GB&amp;quot;, &amp;quot;Microsoft YaHei&amp;quot;, &amp;quot;WenQuanYi Micro Hei&amp;quot;, sans-serif, SimHei, SimSun; background-color: rgb(255, 255, 255);&quot;&gt;①专家判断&lt;/p&gt;&lt;p style=&quot;box-sizing: border-box; outline: 0px; margin: 0px; padding: 0px; font-size: 14px; color: rgb(79, 79, 79); overflow: auto hidden; line-height: 22px; overflow-wrap: break-word; text-align: left; font-family: -apple-system, &amp;quot;SF UI Text&amp;quot;, Arial, &amp;quot;PingFang SC&amp;quot;, &amp;quot;Hiragino Sans GB&amp;quot;, &amp;quot;Microsoft YaHei&amp;quot;, &amp;quot;WenQuanYi Micro Hei&amp;quot;, sans-serif, SimHei, SimSun; background-color: rgb(255, 255, 255);&quot;&gt;②类比估算&lt;/p&gt;&lt;p style=&quot;box-sizing: border-box; outline: 0px; margin: 0px; padding: 0px; font-size: 14px; color: rgb(79, 79, 79); overflow: auto hidden; line-height: 22px; overflow-wrap: break-word; text-align: left; font-family: -apple-system, &amp;quot;SF UI Text&amp;quot;, Arial, &amp;quot;PingFang SC&amp;quot;, &amp;quot;Hiragino Sans GB&amp;quot;, &amp;quot;Microsoft YaHei&amp;quot;, &amp;quot;WenQuanYi Micro Hei&amp;quot;, sans-serif, SimHei, SimSun; background-color: rgb(255, 255, 255);&quot;&gt;③参数估算&lt;/p&gt;&lt;p style=&quot;box-sizing: border-box; outline: 0px; margin: 0px; padding: 0px; font-size: 14px; color: rgb(79, 79, 79); overflow: auto hidden; line-height: 22px; overflow-wrap: break-word; text-align: left; font-family: -apple-system, &amp;quot;SF UI Text&amp;quot;, Arial, &amp;quot;PingFang SC&amp;quot;, &amp;quot;Hiragino Sans GB&amp;quot;, &amp;quot;Microsoft YaHei&amp;quot;, &amp;quot;WenQuanYi Micro Hei&amp;quot;, sans-serif, SimHei, SimSun; background-color: rgb(255, 255, 255);&quot;&gt;④自下而上估算&lt;/p&gt;&lt;p style=&quot;box-sizing: border-box; outline: 0px; margin: 0px; padding: 0px; font-size: 14px; color: rgb(79, 79, 79); overflow: auto hidden; line-height: 22px; overflow-wrap: break-word; text-align: left; font-family: -apple-system, &amp;quot;SF UI Text&amp;quot;, Arial, &amp;quot;PingFang SC&amp;quot;, &amp;quot;Hiragino Sans GB&amp;quot;, &amp;quot;Microsoft YaHei&amp;quot;, &amp;quot;WenQuanYi Micro Hei&amp;quot;, sans-serif, SimHei, SimSun; background-color: rgb(255, 255, 255);&quot;&gt;⑤三点估算&lt;/p&gt;&lt;p style=&quot;box-sizing: border-box; outline: 0px; margin: 0px; padding: 0px; font-size: 14px; color: rgb(79, 79, 79); overflow: auto hidden; line-height: 22px; overflow-wrap: break-word; text-align: left; font-family: -apple-system, &amp;quot;SF UI Text&amp;quot;, Arial, &amp;quot;PingFang SC&amp;quot;, &amp;quot;Hiragino Sans GB&amp;quot;, &amp;quot;Microsoft YaHei&amp;quot;, &amp;quot;WenQuanYi Micro Hei&amp;quot;, sans-serif, SimHei, SimSun; background-color: rgb(255, 255, 255);&quot;&gt;⑥储备分析&lt;/p&gt;&lt;p style=&quot;box-sizing: border-box; outline: 0px; margin: 0px; padding: 0px; font-size: 14px; color: rgb(79, 79, 79); overflow: auto hidden; line-height: 22px; overflow-wrap: break-word; text-align: left; font-family: -apple-system, &amp;quot;SF UI Text&amp;quot;, Arial, &amp;quot;PingFang SC&amp;quot;, &amp;quot;Hiragino Sans GB&amp;quot;, &amp;quot;Microsoft YaHei&amp;quot;, &amp;quot;WenQuanYi Micro Hei&amp;quot;, sans-serif, SimHei, SimSun; background-color: rgb(255, 255, 255);&quot;&gt;⑦质量分析&lt;/p&gt;&lt;p style=&quot;box-sizing: border-box; outline: 0px; margin: 0px; padding: 0px; font-size: 14px; color: rgb(79, 79, 79); overflow: auto hidden; line-height: 22px; overflow-wrap: break-word; text-align: left; font-family: -apple-system, &amp;quot;SF UI Text&amp;quot;, Arial, &amp;quot;PingFang SC&amp;quot;, &amp;quot;Hiragino Sans GB&amp;quot;, &amp;quot;Microsoft YaHei&amp;quot;, &amp;quot;WenQuanYi Micro Hei&amp;quot;, sans-serif, SimHei, SimSun; background-color: rgb(255, 255, 255);&quot;&gt;⑧项目管理软件&lt;/p&gt;&lt;p style=&quot;box-sizing: border-box; outline: 0px; margin: 0px; padding: 0px; font-size: 14px; color: rgb(79, 79, 79); overflow: auto hidden; line-height: 22px; overflow-wrap: break-word; text-align: left; font-family: -apple-system, &amp;quot;SF UI Text&amp;quot;, Arial, &amp;quot;PingFang SC&amp;quot;, &amp;quot;Hiragino Sans GB&amp;quot;, &amp;quot;Microsoft YaHei&amp;quot;, &amp;quot;WenQuanYi Micro Hei&amp;quot;, sans-serif, SimHei, SimSun; background-color: rgb(255, 255, 255);&quot;&gt;⑨卖方投标分析&lt;/p&gt;&lt;p style=&quot;box-sizing: border-box; outline: 0px; margin: 0px; padding: 0px; font-size: 14px; color: rgb(79, 79, 79); overflow: auto hidden; line-height: 22px; overflow-wrap: break-word; text-align: left; font-family: -apple-system, &amp;quot;SF UI Text&amp;quot;, Arial, &amp;quot;PingFang SC&amp;quot;, &amp;quot;Hiragino Sans GB&amp;quot;, &amp;quot;Microsoft YaHei&amp;quot;, &amp;quot;WenQuanYi Micro Hei&amp;quot;, sans-serif, SimHei, SimSun; background-color: rgb(255, 255, 255);&quot;&gt;⑩群体决策技术&lt;/p&gt;" style="rounded=0;whiteSpace=wrap;html=1;" vertex="1" parent="1">
          <mxGeometry x="-560" y="2698.5" width="120" height="221.5" as="geometry" />
        </mxCell>
        <mxCell id="ryVuJxq20EtKmYp90kE4-8" value="&lt;p style=&quot;box-sizing: border-box; outline: 0px; margin: 0px; padding: 0px; font-size: 14px; color: rgb(79, 79, 79); overflow: auto hidden; line-height: 22px; overflow-wrap: break-word; text-align: left; font-family: -apple-system, &amp;quot;SF UI Text&amp;quot;, Arial, &amp;quot;PingFang SC&amp;quot;, &amp;quot;Hiragino Sans GB&amp;quot;, &amp;quot;Microsoft YaHei&amp;quot;, &amp;quot;WenQuanYi Micro Hei&amp;quot;, sans-serif, SimHei, SimSun; background-color: rgb(255, 255, 255);&quot;&gt;①活动成本估算&lt;/p&gt;&lt;p style=&quot;box-sizing: border-box; outline: 0px; margin: 0px; padding: 0px; font-size: 14px; color: rgb(79, 79, 79); overflow: auto hidden; line-height: 22px; overflow-wrap: break-word; text-align: left; font-family: -apple-system, &amp;quot;SF UI Text&amp;quot;, Arial, &amp;quot;PingFang SC&amp;quot;, &amp;quot;Hiragino Sans GB&amp;quot;, &amp;quot;Microsoft YaHei&amp;quot;, &amp;quot;WenQuanYi Micro Hei&amp;quot;, sans-serif, SimHei, SimSun; background-color: rgb(255, 255, 255);&quot;&gt;②估算依据&lt;/p&gt;&lt;p style=&quot;box-sizing: border-box; outline: 0px; margin: 0px; padding: 0px; font-size: 14px; color: rgb(79, 79, 79); overflow: auto hidden; line-height: 22px; overflow-wrap: break-word; text-align: left; font-family: -apple-system, &amp;quot;SF UI Text&amp;quot;, Arial, &amp;quot;PingFang SC&amp;quot;, &amp;quot;Hiragino Sans GB&amp;quot;, &amp;quot;Microsoft YaHei&amp;quot;, &amp;quot;WenQuanYi Micro Hei&amp;quot;, sans-serif, SimHei, SimSun; background-color: rgb(255, 255, 255);&quot;&gt;③项目文件更新&lt;/p&gt;" style="rounded=0;whiteSpace=wrap;html=1;" vertex="1" parent="1">
          <mxGeometry x="-440" y="2698.5" width="120" height="221.5" as="geometry" />
        </mxCell>
        <mxCell id="ryVuJxq20EtKmYp90kE4-9" value="&lt;p style=&quot;box-sizing: border-box; outline: 0px; margin: 0px; padding: 0px; font-size: 14px; color: rgb(79, 79, 79); overflow: auto hidden; line-height: 22px; overflow-wrap: break-word; text-align: left; font-family: -apple-system, &amp;quot;SF UI Text&amp;quot;, Arial, &amp;quot;PingFang SC&amp;quot;, &amp;quot;Hiragino Sans GB&amp;quot;, &amp;quot;Microsoft YaHei&amp;quot;, &amp;quot;WenQuanYi Micro Hei&amp;quot;, sans-serif, SimHei, SimSun; background-color: rgb(255, 255, 255);&quot;&gt;规划过程组&lt;/p&gt;" style="rounded=0;whiteSpace=wrap;html=1;" vertex="1" parent="1">
          <mxGeometry x="-320" y="2698.5" width="120" height="221.5" as="geometry" />
        </mxCell>
        <mxCell id="ryVuJxq20EtKmYp90kE4-10" value="&lt;h4 style=&quot;box-sizing: border-box; outline: 0px; margin: 24px 0px 8px; padding: 0px; font-family: &amp;quot;PingFang SC&amp;quot;, &amp;quot;Microsoft YaHei&amp;quot;, SimHei, Arial, SimSun; font-size: 18px; color: rgb(79, 79, 79); line-height: 26px; overflow-wrap: break-word; text-align: start; background-color: rgb(255, 255, 255);&quot; id=&quot;5%E3%80%81%E7%A1%AE%E8%AE%A4%E8%8C%83%E5%9B%B4&quot;&gt;估算成本&lt;/h4&gt;" style="rounded=0;whiteSpace=wrap;html=1;" vertex="1" parent="1">
          <mxGeometry x="-800" y="2698.5" width="120" height="221.5" as="geometry" />
        </mxCell>
        <mxCell id="ryVuJxq20EtKmYp90kE4-11" value="&lt;h3 style=&quot;box-sizing: border-box; outline: 0px; margin: 24px 0px 8px; padding: 0px; font-family: &amp;quot;PingFang SC&amp;quot;, &amp;quot;Microsoft YaHei&amp;quot;, SimHei, Arial, SimSun; font-size: 20px; color: rgb(79, 79, 79); line-height: 30px; overflow-wrap: break-word; text-align: start; background-color: rgb(255, 255, 255);&quot; id=&quot;%E5%9B%9B%E3%80%81%E6%88%90%E6%9C%AC%E7%AE%A1%E7%90%86&quot;&gt;成本管理（4）&lt;/h3&gt;" style="rounded=0;whiteSpace=wrap;html=1;" vertex="1" parent="1">
          <mxGeometry x="-920" y="2586.5" width="120" height="731.5" as="geometry" />
        </mxCell>
        <mxCell id="ryVuJxq20EtKmYp90kE4-12" value="&lt;p style=&quot;box-sizing: border-box; outline: 0px; margin: 0px; padding: 0px; font-size: 14px; color: rgb(79, 79, 79); overflow: auto hidden; line-height: 22px; overflow-wrap: break-word; text-align: left; font-family: -apple-system, &amp;quot;SF UI Text&amp;quot;, Arial, &amp;quot;PingFang SC&amp;quot;, &amp;quot;Hiragino Sans GB&amp;quot;, &amp;quot;Microsoft YaHei&amp;quot;, &amp;quot;WenQuanYi Micro Hei&amp;quot;, sans-serif, SimHei, SimSun; background-color: rgb(255, 255, 255);&quot;&gt;①成本管理计划&lt;/p&gt;&lt;p style=&quot;box-sizing: border-box; outline: 0px; margin: 0px; padding: 0px; font-size: 14px; color: rgb(79, 79, 79); overflow: auto hidden; line-height: 22px; overflow-wrap: break-word; text-align: left; font-family: -apple-system, &amp;quot;SF UI Text&amp;quot;, Arial, &amp;quot;PingFang SC&amp;quot;, &amp;quot;Hiragino Sans GB&amp;quot;, &amp;quot;Microsoft YaHei&amp;quot;, &amp;quot;WenQuanYi Micro Hei&amp;quot;, sans-serif, SimHei, SimSun; background-color: rgb(255, 255, 255);&quot;&gt;②范围基准&lt;/p&gt;&lt;p style=&quot;box-sizing: border-box; outline: 0px; margin: 0px; padding: 0px; font-size: 14px; color: rgb(79, 79, 79); overflow: auto hidden; line-height: 22px; overflow-wrap: break-word; text-align: left; font-family: -apple-system, &amp;quot;SF UI Text&amp;quot;, Arial, &amp;quot;PingFang SC&amp;quot;, &amp;quot;Hiragino Sans GB&amp;quot;, &amp;quot;Microsoft YaHei&amp;quot;, &amp;quot;WenQuanYi Micro Hei&amp;quot;, sans-serif, SimHei, SimSun; background-color: rgb(255, 255, 255);&quot;&gt;③活动成本估算&lt;/p&gt;&lt;p style=&quot;box-sizing: border-box; outline: 0px; margin: 0px; padding: 0px; font-size: 14px; color: rgb(79, 79, 79); overflow: auto hidden; line-height: 22px; overflow-wrap: break-word; text-align: left; font-family: -apple-system, &amp;quot;SF UI Text&amp;quot;, Arial, &amp;quot;PingFang SC&amp;quot;, &amp;quot;Hiragino Sans GB&amp;quot;, &amp;quot;Microsoft YaHei&amp;quot;, &amp;quot;WenQuanYi Micro Hei&amp;quot;, sans-serif, SimHei, SimSun; background-color: rgb(255, 255, 255);&quot;&gt;④估算依据&lt;/p&gt;&lt;p style=&quot;box-sizing: border-box; outline: 0px; margin: 0px; padding: 0px; font-size: 14px; color: rgb(79, 79, 79); overflow: auto hidden; line-height: 22px; overflow-wrap: break-word; text-align: left; font-family: -apple-system, &amp;quot;SF UI Text&amp;quot;, Arial, &amp;quot;PingFang SC&amp;quot;, &amp;quot;Hiragino Sans GB&amp;quot;, &amp;quot;Microsoft YaHei&amp;quot;, &amp;quot;WenQuanYi Micro Hei&amp;quot;, sans-serif, SimHei, SimSun; background-color: rgb(255, 255, 255);&quot;&gt;⑤项目进度管理计划&lt;/p&gt;&lt;p style=&quot;box-sizing: border-box; outline: 0px; margin: 0px; padding: 0px; font-size: 14px; color: rgb(79, 79, 79); overflow: auto hidden; line-height: 22px; overflow-wrap: break-word; text-align: left; font-family: -apple-system, &amp;quot;SF UI Text&amp;quot;, Arial, &amp;quot;PingFang SC&amp;quot;, &amp;quot;Hiragino Sans GB&amp;quot;, &amp;quot;Microsoft YaHei&amp;quot;, &amp;quot;WenQuanYi Micro Hei&amp;quot;, sans-serif, SimHei, SimSun; background-color: rgb(255, 255, 255);&quot;&gt;⑥资源日历&lt;/p&gt;&lt;p style=&quot;box-sizing: border-box; outline: 0px; margin: 0px; padding: 0px; font-size: 14px; color: rgb(79, 79, 79); overflow: auto hidden; line-height: 22px; overflow-wrap: break-word; text-align: left; font-family: -apple-system, &amp;quot;SF UI Text&amp;quot;, Arial, &amp;quot;PingFang SC&amp;quot;, &amp;quot;Hiragino Sans GB&amp;quot;, &amp;quot;Microsoft YaHei&amp;quot;, &amp;quot;WenQuanYi Micro Hei&amp;quot;, sans-serif, SimHei, SimSun; background-color: rgb(255, 255, 255);&quot;&gt;⑦风险登记册&lt;/p&gt;&lt;p style=&quot;box-sizing: border-box; outline: 0px; margin: 0px; padding: 0px; font-size: 14px; color: rgb(79, 79, 79); overflow: auto hidden; line-height: 22px; overflow-wrap: break-word; text-align: left; font-family: -apple-system, &amp;quot;SF UI Text&amp;quot;, Arial, &amp;quot;PingFang SC&amp;quot;, &amp;quot;Hiragino Sans GB&amp;quot;, &amp;quot;Microsoft YaHei&amp;quot;, &amp;quot;WenQuanYi Micro Hei&amp;quot;, sans-serif, SimHei, SimSun; background-color: rgb(255, 255, 255);&quot;&gt;⑧协议&lt;/p&gt;&lt;p style=&quot;box-sizing: border-box; outline: 0px; margin: 0px; padding: 0px; font-size: 14px; color: rgb(79, 79, 79); overflow: auto hidden; line-height: 22px; overflow-wrap: break-word; text-align: left; font-family: -apple-system, &amp;quot;SF UI Text&amp;quot;, Arial, &amp;quot;PingFang SC&amp;quot;, &amp;quot;Hiragino Sans GB&amp;quot;, &amp;quot;Microsoft YaHei&amp;quot;, &amp;quot;WenQuanYi Micro Hei&amp;quot;, sans-serif, SimHei, SimSun; background-color: rgb(255, 255, 255);&quot;&gt;⑨组织过程资产&lt;/p&gt;" style="rounded=0;whiteSpace=wrap;html=1;" vertex="1" parent="1">
          <mxGeometry x="-680" y="2920" width="120" height="220" as="geometry" />
        </mxCell>
        <mxCell id="ryVuJxq20EtKmYp90kE4-13" value="&lt;p style=&quot;box-sizing: border-box; outline: 0px; margin: 0px; padding: 0px; font-size: 14px; color: rgb(79, 79, 79); overflow: auto hidden; line-height: 22px; overflow-wrap: break-word; text-align: left; font-family: -apple-system, &amp;quot;SF UI Text&amp;quot;, Arial, &amp;quot;PingFang SC&amp;quot;, &amp;quot;Hiragino Sans GB&amp;quot;, &amp;quot;Microsoft YaHei&amp;quot;, &amp;quot;WenQuanYi Micro Hei&amp;quot;, sans-serif, SimHei, SimSun; background-color: rgb(255, 255, 255);&quot;&gt;①成本汇总&lt;/p&gt;&lt;p style=&quot;box-sizing: border-box; outline: 0px; margin: 0px; padding: 0px; font-size: 14px; color: rgb(79, 79, 79); overflow: auto hidden; line-height: 22px; overflow-wrap: break-word; text-align: left; font-family: -apple-system, &amp;quot;SF UI Text&amp;quot;, Arial, &amp;quot;PingFang SC&amp;quot;, &amp;quot;Hiragino Sans GB&amp;quot;, &amp;quot;Microsoft YaHei&amp;quot;, &amp;quot;WenQuanYi Micro Hei&amp;quot;, sans-serif, SimHei, SimSun; background-color: rgb(255, 255, 255);&quot;&gt;②储备分析&lt;/p&gt;&lt;p style=&quot;box-sizing: border-box; outline: 0px; margin: 0px; padding: 0px; font-size: 14px; color: rgb(79, 79, 79); overflow: auto hidden; line-height: 22px; overflow-wrap: break-word; text-align: left; font-family: -apple-system, &amp;quot;SF UI Text&amp;quot;, Arial, &amp;quot;PingFang SC&amp;quot;, &amp;quot;Hiragino Sans GB&amp;quot;, &amp;quot;Microsoft YaHei&amp;quot;, &amp;quot;WenQuanYi Micro Hei&amp;quot;, sans-serif, SimHei, SimSun; background-color: rgb(255, 255, 255);&quot;&gt;③专家判断&lt;/p&gt;&lt;p style=&quot;box-sizing: border-box; outline: 0px; margin: 0px; padding: 0px; font-size: 14px; color: rgb(79, 79, 79); overflow: auto hidden; line-height: 22px; overflow-wrap: break-word; text-align: left; font-family: -apple-system, &amp;quot;SF UI Text&amp;quot;, Arial, &amp;quot;PingFang SC&amp;quot;, &amp;quot;Hiragino Sans GB&amp;quot;, &amp;quot;Microsoft YaHei&amp;quot;, &amp;quot;WenQuanYi Micro Hei&amp;quot;, sans-serif, SimHei, SimSun; background-color: rgb(255, 255, 255);&quot;&gt;④历史关系&lt;/p&gt;&lt;p style=&quot;box-sizing: border-box; outline: 0px; margin: 0px; padding: 0px; font-size: 14px; color: rgb(79, 79, 79); overflow: auto hidden; line-height: 22px; overflow-wrap: break-word; text-align: left; font-family: -apple-system, &amp;quot;SF UI Text&amp;quot;, Arial, &amp;quot;PingFang SC&amp;quot;, &amp;quot;Hiragino Sans GB&amp;quot;, &amp;quot;Microsoft YaHei&amp;quot;, &amp;quot;WenQuanYi Micro Hei&amp;quot;, sans-serif, SimHei, SimSun; background-color: rgb(255, 255, 255);&quot;&gt;⑤资源限制平衡&lt;/p&gt;" style="rounded=0;whiteSpace=wrap;html=1;" vertex="1" parent="1">
          <mxGeometry x="-560" y="2920" width="120" height="220" as="geometry" />
        </mxCell>
        <mxCell id="ryVuJxq20EtKmYp90kE4-14" value="&lt;p style=&quot;box-sizing: border-box; outline: 0px; margin: 0px; padding: 0px; font-size: 14px; color: rgb(79, 79, 79); overflow: auto hidden; line-height: 22px; overflow-wrap: break-word; text-align: left; font-family: -apple-system, &amp;quot;SF UI Text&amp;quot;, Arial, &amp;quot;PingFang SC&amp;quot;, &amp;quot;Hiragino Sans GB&amp;quot;, &amp;quot;Microsoft YaHei&amp;quot;, &amp;quot;WenQuanYi Micro Hei&amp;quot;, sans-serif, SimHei, SimSun; background-color: rgb(255, 255, 255);&quot;&gt;①成本基准&lt;/p&gt;&lt;p style=&quot;box-sizing: border-box; outline: 0px; margin: 0px; padding: 0px; font-size: 14px; color: rgb(79, 79, 79); overflow: auto hidden; line-height: 22px; overflow-wrap: break-word; text-align: left; font-family: -apple-system, &amp;quot;SF UI Text&amp;quot;, Arial, &amp;quot;PingFang SC&amp;quot;, &amp;quot;Hiragino Sans GB&amp;quot;, &amp;quot;Microsoft YaHei&amp;quot;, &amp;quot;WenQuanYi Micro Hei&amp;quot;, sans-serif, SimHei, SimSun; background-color: rgb(255, 255, 255);&quot;&gt;②项目资金需求&lt;/p&gt;&lt;p style=&quot;box-sizing: border-box; outline: 0px; margin: 0px; padding: 0px; font-size: 14px; color: rgb(79, 79, 79); overflow: auto hidden; line-height: 22px; overflow-wrap: break-word; text-align: left; font-family: -apple-system, &amp;quot;SF UI Text&amp;quot;, Arial, &amp;quot;PingFang SC&amp;quot;, &amp;quot;Hiragino Sans GB&amp;quot;, &amp;quot;Microsoft YaHei&amp;quot;, &amp;quot;WenQuanYi Micro Hei&amp;quot;, sans-serif, SimHei, SimSun; background-color: rgb(255, 255, 255);&quot;&gt;③项目文件更新&lt;/p&gt;" style="rounded=0;whiteSpace=wrap;html=1;" vertex="1" parent="1">
          <mxGeometry x="-440" y="2920" width="120" height="220" as="geometry" />
        </mxCell>
        <mxCell id="ryVuJxq20EtKmYp90kE4-15" value="&lt;p style=&quot;box-sizing: border-box; outline: 0px; margin: 0px; padding: 0px; font-size: 14px; color: rgb(79, 79, 79); overflow: auto hidden; line-height: 22px; overflow-wrap: break-word; text-align: left; font-family: -apple-system, &amp;quot;SF UI Text&amp;quot;, Arial, &amp;quot;PingFang SC&amp;quot;, &amp;quot;Hiragino Sans GB&amp;quot;, &amp;quot;Microsoft YaHei&amp;quot;, &amp;quot;WenQuanYi Micro Hei&amp;quot;, sans-serif, SimHei, SimSun; background-color: rgb(255, 255, 255);&quot;&gt;规划过程组&lt;/p&gt;" style="rounded=0;whiteSpace=wrap;html=1;" vertex="1" parent="1">
          <mxGeometry x="-320" y="2920" width="120" height="220" as="geometry" />
        </mxCell>
        <mxCell id="ryVuJxq20EtKmYp90kE4-16" value="&lt;h4 style=&quot;box-sizing: border-box; outline: 0px; margin: 24px 0px 8px; padding: 0px; font-family: &amp;quot;PingFang SC&amp;quot;, &amp;quot;Microsoft YaHei&amp;quot;, SimHei, Arial, SimSun; font-size: 18px; color: rgb(79, 79, 79); line-height: 26px; overflow-wrap: break-word; text-align: start; background-color: rgb(255, 255, 255);&quot; id=&quot;5%E3%80%81%E7%A1%AE%E8%AE%A4%E8%8C%83%E5%9B%B4&quot;&gt;制定预算&lt;/h4&gt;" style="rounded=0;whiteSpace=wrap;html=1;" vertex="1" parent="1">
          <mxGeometry x="-800" y="2920" width="120" height="220" as="geometry" />
        </mxCell>
        <mxCell id="ryVuJxq20EtKmYp90kE4-17" value="&lt;p style=&quot;box-sizing: border-box; outline: 0px; margin: 0px; padding: 0px; font-size: 14px; color: rgb(79, 79, 79); overflow: auto hidden; line-height: 22px; overflow-wrap: break-word; text-align: left; font-family: -apple-system, &amp;quot;SF UI Text&amp;quot;, Arial, &amp;quot;PingFang SC&amp;quot;, &amp;quot;Hiragino Sans GB&amp;quot;, &amp;quot;Microsoft YaHei&amp;quot;, &amp;quot;WenQuanYi Micro Hei&amp;quot;, sans-serif, SimHei, SimSun; background-color: rgb(255, 255, 255);&quot;&gt;①项目管理计划&lt;/p&gt;&lt;p style=&quot;box-sizing: border-box; outline: 0px; margin: 0px; padding: 0px; font-size: 14px; color: rgb(79, 79, 79); overflow: auto hidden; line-height: 22px; overflow-wrap: break-word; text-align: left; font-family: -apple-system, &amp;quot;SF UI Text&amp;quot;, Arial, &amp;quot;PingFang SC&amp;quot;, &amp;quot;Hiragino Sans GB&amp;quot;, &amp;quot;Microsoft YaHei&amp;quot;, &amp;quot;WenQuanYi Micro Hei&amp;quot;, sans-serif, SimHei, SimSun; background-color: rgb(255, 255, 255);&quot;&gt;②项目资金需求&lt;/p&gt;&lt;p style=&quot;box-sizing: border-box; outline: 0px; margin: 0px; padding: 0px; font-size: 14px; color: rgb(79, 79, 79); overflow: auto hidden; line-height: 22px; overflow-wrap: break-word; text-align: left; font-family: -apple-system, &amp;quot;SF UI Text&amp;quot;, Arial, &amp;quot;PingFang SC&amp;quot;, &amp;quot;Hiragino Sans GB&amp;quot;, &amp;quot;Microsoft YaHei&amp;quot;, &amp;quot;WenQuanYi Micro Hei&amp;quot;, sans-serif, SimHei, SimSun; background-color: rgb(255, 255, 255);&quot;&gt;③工作绩效数据&lt;/p&gt;&lt;p style=&quot;box-sizing: border-box; outline: 0px; margin: 0px; padding: 0px; font-size: 14px; color: rgb(79, 79, 79); overflow: auto hidden; line-height: 22px; overflow-wrap: break-word; text-align: left; font-family: -apple-system, &amp;quot;SF UI Text&amp;quot;, Arial, &amp;quot;PingFang SC&amp;quot;, &amp;quot;Hiragino Sans GB&amp;quot;, &amp;quot;Microsoft YaHei&amp;quot;, &amp;quot;WenQuanYi Micro Hei&amp;quot;, sans-serif, SimHei, SimSun; background-color: rgb(255, 255, 255);&quot;&gt;④组织过程资产&lt;/p&gt;" style="rounded=0;whiteSpace=wrap;html=1;" vertex="1" parent="1">
          <mxGeometry x="-680" y="3140" width="120" height="178.5" as="geometry" />
        </mxCell>
        <mxCell id="ryVuJxq20EtKmYp90kE4-18" value="&lt;p style=&quot;box-sizing: border-box; outline: 0px; margin: 0px; padding: 0px; font-size: 14px; color: rgb(79, 79, 79); overflow: auto hidden; line-height: 22px; overflow-wrap: break-word; text-align: left; font-family: -apple-system, &amp;quot;SF UI Text&amp;quot;, Arial, &amp;quot;PingFang SC&amp;quot;, &amp;quot;Hiragino Sans GB&amp;quot;, &amp;quot;Microsoft YaHei&amp;quot;, &amp;quot;WenQuanYi Micro Hei&amp;quot;, sans-serif, SimHei, SimSun; background-color: rgb(255, 255, 255);&quot;&gt;①挣值管理&lt;/p&gt;&lt;p style=&quot;box-sizing: border-box; outline: 0px; margin: 0px; padding: 0px; font-size: 14px; color: rgb(79, 79, 79); overflow: auto hidden; line-height: 22px; overflow-wrap: break-word; text-align: left; font-family: -apple-system, &amp;quot;SF UI Text&amp;quot;, Arial, &amp;quot;PingFang SC&amp;quot;, &amp;quot;Hiragino Sans GB&amp;quot;, &amp;quot;Microsoft YaHei&amp;quot;, &amp;quot;WenQuanYi Micro Hei&amp;quot;, sans-serif, SimHei, SimSun; background-color: rgb(255, 255, 255);&quot;&gt;②预测&lt;/p&gt;&lt;p style=&quot;box-sizing: border-box; outline: 0px; margin: 0px; padding: 0px; font-size: 14px; color: rgb(79, 79, 79); overflow: auto hidden; line-height: 22px; overflow-wrap: break-word; text-align: left; font-family: -apple-system, &amp;quot;SF UI Text&amp;quot;, Arial, &amp;quot;PingFang SC&amp;quot;, &amp;quot;Hiragino Sans GB&amp;quot;, &amp;quot;Microsoft YaHei&amp;quot;, &amp;quot;WenQuanYi Micro Hei&amp;quot;, sans-serif, SimHei, SimSun; background-color: rgb(255, 255, 255);&quot;&gt;③完工尚需绩效指数&lt;/p&gt;&lt;p style=&quot;box-sizing: border-box; outline: 0px; margin: 0px; padding: 0px; font-size: 14px; color: rgb(79, 79, 79); overflow: auto hidden; line-height: 22px; overflow-wrap: break-word; text-align: left; font-family: -apple-system, &amp;quot;SF UI Text&amp;quot;, Arial, &amp;quot;PingFang SC&amp;quot;, &amp;quot;Hiragino Sans GB&amp;quot;, &amp;quot;Microsoft YaHei&amp;quot;, &amp;quot;WenQuanYi Micro Hei&amp;quot;, sans-serif, SimHei, SimSun; background-color: rgb(255, 255, 255);&quot;&gt;④绩效审查&lt;/p&gt;&lt;p style=&quot;box-sizing: border-box; outline: 0px; margin: 0px; padding: 0px; font-size: 14px; color: rgb(79, 79, 79); overflow: auto hidden; line-height: 22px; overflow-wrap: break-word; text-align: left; font-family: -apple-system, &amp;quot;SF UI Text&amp;quot;, Arial, &amp;quot;PingFang SC&amp;quot;, &amp;quot;Hiragino Sans GB&amp;quot;, &amp;quot;Microsoft YaHei&amp;quot;, &amp;quot;WenQuanYi Micro Hei&amp;quot;, sans-serif, SimHei, SimSun; background-color: rgb(255, 255, 255);&quot;&gt;⑤项目管理软件&lt;/p&gt;&lt;p style=&quot;box-sizing: border-box; outline: 0px; margin: 0px; padding: 0px; font-size: 14px; color: rgb(79, 79, 79); overflow: auto hidden; line-height: 22px; overflow-wrap: break-word; text-align: left; font-family: -apple-system, &amp;quot;SF UI Text&amp;quot;, Arial, &amp;quot;PingFang SC&amp;quot;, &amp;quot;Hiragino Sans GB&amp;quot;, &amp;quot;Microsoft YaHei&amp;quot;, &amp;quot;WenQuanYi Micro Hei&amp;quot;, sans-serif, SimHei, SimSun; background-color: rgb(255, 255, 255);&quot;&gt;⑥储备分析&lt;/p&gt;" style="rounded=0;whiteSpace=wrap;html=1;" vertex="1" parent="1">
          <mxGeometry x="-560" y="3140" width="120" height="178.5" as="geometry" />
        </mxCell>
        <mxCell id="ryVuJxq20EtKmYp90kE4-19" value="&lt;p style=&quot;box-sizing: border-box; outline: 0px; margin: 0px; padding: 0px; font-size: 14px; color: rgb(79, 79, 79); overflow: auto hidden; line-height: 22px; overflow-wrap: break-word; text-align: left; font-family: -apple-system, &amp;quot;SF UI Text&amp;quot;, Arial, &amp;quot;PingFang SC&amp;quot;, &amp;quot;Hiragino Sans GB&amp;quot;, &amp;quot;Microsoft YaHei&amp;quot;, &amp;quot;WenQuanYi Micro Hei&amp;quot;, sans-serif, SimHei, SimSun; background-color: rgb(255, 255, 255);&quot;&gt;①工作绩效信息&lt;/p&gt;&lt;p style=&quot;box-sizing: border-box; outline: 0px; margin: 0px; padding: 0px; font-size: 14px; color: rgb(79, 79, 79); overflow: auto hidden; line-height: 22px; overflow-wrap: break-word; text-align: left; font-family: -apple-system, &amp;quot;SF UI Text&amp;quot;, Arial, &amp;quot;PingFang SC&amp;quot;, &amp;quot;Hiragino Sans GB&amp;quot;, &amp;quot;Microsoft YaHei&amp;quot;, &amp;quot;WenQuanYi Micro Hei&amp;quot;, sans-serif, SimHei, SimSun; background-color: rgb(255, 255, 255);&quot;&gt;②成本预测&lt;/p&gt;&lt;p style=&quot;box-sizing: border-box; outline: 0px; margin: 0px; padding: 0px; font-size: 14px; color: rgb(79, 79, 79); overflow: auto hidden; line-height: 22px; overflow-wrap: break-word; text-align: left; font-family: -apple-system, &amp;quot;SF UI Text&amp;quot;, Arial, &amp;quot;PingFang SC&amp;quot;, &amp;quot;Hiragino Sans GB&amp;quot;, &amp;quot;Microsoft YaHei&amp;quot;, &amp;quot;WenQuanYi Micro Hei&amp;quot;, sans-serif, SimHei, SimSun; background-color: rgb(255, 255, 255);&quot;&gt;③变更请求&lt;/p&gt;&lt;p style=&quot;box-sizing: border-box; outline: 0px; margin: 0px; padding: 0px; font-size: 14px; color: rgb(79, 79, 79); overflow: auto hidden; line-height: 22px; overflow-wrap: break-word; text-align: left; font-family: -apple-system, &amp;quot;SF UI Text&amp;quot;, Arial, &amp;quot;PingFang SC&amp;quot;, &amp;quot;Hiragino Sans GB&amp;quot;, &amp;quot;Microsoft YaHei&amp;quot;, &amp;quot;WenQuanYi Micro Hei&amp;quot;, sans-serif, SimHei, SimSun; background-color: rgb(255, 255, 255);&quot;&gt;④项目管理计划更新&lt;/p&gt;&lt;p style=&quot;box-sizing: border-box; outline: 0px; margin: 0px; padding: 0px; font-size: 14px; color: rgb(79, 79, 79); overflow: auto hidden; line-height: 22px; overflow-wrap: break-word; text-align: left; font-family: -apple-system, &amp;quot;SF UI Text&amp;quot;, Arial, &amp;quot;PingFang SC&amp;quot;, &amp;quot;Hiragino Sans GB&amp;quot;, &amp;quot;Microsoft YaHei&amp;quot;, &amp;quot;WenQuanYi Micro Hei&amp;quot;, sans-serif, SimHei, SimSun; background-color: rgb(255, 255, 255);&quot;&gt;⑤项目文件更新&lt;/p&gt;&lt;p style=&quot;box-sizing: border-box; outline: 0px; margin: 0px; padding: 0px; font-size: 14px; color: rgb(79, 79, 79); overflow: auto hidden; line-height: 22px; overflow-wrap: break-word; text-align: left; font-family: -apple-system, &amp;quot;SF UI Text&amp;quot;, Arial, &amp;quot;PingFang SC&amp;quot;, &amp;quot;Hiragino Sans GB&amp;quot;, &amp;quot;Microsoft YaHei&amp;quot;, &amp;quot;WenQuanYi Micro Hei&amp;quot;, sans-serif, SimHei, SimSun; background-color: rgb(255, 255, 255);&quot;&gt;⑥组织过程资产更新&lt;/p&gt;" style="rounded=0;whiteSpace=wrap;html=1;" vertex="1" parent="1">
          <mxGeometry x="-440" y="3140" width="120" height="178.5" as="geometry" />
        </mxCell>
        <mxCell id="ryVuJxq20EtKmYp90kE4-20" value="&lt;p style=&quot;box-sizing: border-box; outline: 0px; margin: 0px; padding: 0px; font-size: 14px; color: rgb(79, 79, 79); overflow: auto hidden; line-height: 22px; overflow-wrap: break-word; text-align: left; font-family: -apple-system, &amp;quot;SF UI Text&amp;quot;, Arial, &amp;quot;PingFang SC&amp;quot;, &amp;quot;Hiragino Sans GB&amp;quot;, &amp;quot;Microsoft YaHei&amp;quot;, &amp;quot;WenQuanYi Micro Hei&amp;quot;, sans-serif, SimHei, SimSun; background-color: rgb(255, 255, 255);&quot;&gt;监控过程组&lt;/p&gt;" style="rounded=0;whiteSpace=wrap;html=1;" vertex="1" parent="1">
          <mxGeometry x="-320" y="3140" width="120" height="178.5" as="geometry" />
        </mxCell>
        <mxCell id="ryVuJxq20EtKmYp90kE4-21" value="&lt;h4 style=&quot;box-sizing: border-box; outline: 0px; margin: 24px 0px 8px; padding: 0px; font-family: &amp;quot;PingFang SC&amp;quot;, &amp;quot;Microsoft YaHei&amp;quot;, SimHei, Arial, SimSun; font-size: 18px; color: rgb(79, 79, 79); line-height: 26px; overflow-wrap: break-word; text-align: start; background-color: rgb(255, 255, 255);&quot; id=&quot;5%E3%80%81%E7%A1%AE%E8%AE%A4%E8%8C%83%E5%9B%B4&quot;&gt;控制成本&lt;/h4&gt;" style="rounded=0;whiteSpace=wrap;html=1;" vertex="1" parent="1">
          <mxGeometry x="-800" y="3140" width="120" height="178.5" as="geometry" />
        </mxCell>
        <mxCell id="ryVuJxq20EtKmYp90kE4-22" value="输入" style="rounded=0;whiteSpace=wrap;html=1;fillColor=#ffe6cc;strokeColor=#d79b00;" vertex="1" parent="1">
          <mxGeometry x="-680" y="2528.5" width="120" height="60" as="geometry" />
        </mxCell>
        <mxCell id="ryVuJxq20EtKmYp90kE4-23" value="技术或工具" style="rounded=0;whiteSpace=wrap;html=1;fillColor=#ffe6cc;strokeColor=#d79b00;" vertex="1" parent="1">
          <mxGeometry x="-560" y="2528.5" width="120" height="60" as="geometry" />
        </mxCell>
        <mxCell id="ryVuJxq20EtKmYp90kE4-24" value="输出" style="rounded=0;whiteSpace=wrap;html=1;fillColor=#ffe6cc;strokeColor=#d79b00;" vertex="1" parent="1">
          <mxGeometry x="-440" y="2528.5" width="120" height="60" as="geometry" />
        </mxCell>
        <mxCell id="ryVuJxq20EtKmYp90kE4-25" value="过程" style="rounded=0;whiteSpace=wrap;html=1;fillColor=#ffe6cc;strokeColor=#d79b00;" vertex="1" parent="1">
          <mxGeometry x="-800" y="2528.5" width="120" height="60" as="geometry" />
        </mxCell>
        <mxCell id="ryVuJxq20EtKmYp90kE4-26" value="所属分组" style="rounded=0;whiteSpace=wrap;html=1;fillColor=#ffe6cc;strokeColor=#d79b00;" vertex="1" parent="1">
          <mxGeometry x="-320" y="2528.5" width="120" height="60" as="geometry" />
        </mxCell>
        <mxCell id="ryVuJxq20EtKmYp90kE4-27" value="知识领域" style="rounded=0;whiteSpace=wrap;html=1;fillColor=#ffe6cc;strokeColor=#d79b00;" vertex="1" parent="1">
          <mxGeometry x="-920" y="2528.5" width="120" height="60" as="geometry" />
        </mxCell>
      </root>
    </mxGraphModel>
  </diagram>
</mxfile>
